<?xml version="1.0" standalone="no"?>
<!DOCTYPE svg PUBLIC "-//W3C//DTD SVG 20010904//EN"
 "http://www.w3.org/TR/2001/REC-SVG-20010904/DTD/svg10.dtd">
<svg version="1.0" xmlns="http://www.w3.org/2000/svg"
 width="968.000000pt" height="968.000000pt" viewBox="0 0 968.000000 968.000000"
 preserveAspectRatio="xMidYMid meet">
<metadata>
Created by potrace 1.14, written by Peter Selinger 2001-2017
</metadata>
<g transform="translate(0.000000,968.000000) scale(0.100000,-0.100000)"
fill="#000000" stroke="none">
<path d="M1910 9629 c-479 -49 -934 -269 -1277 -617 -321 -326 -534 -768 -582
-1204 -8 -67 -11 -1006 -11 -2982 0 -3168 -3 -2991 60 -3233 213 -820 881
-1415 1740 -1550 109 -17 266 -18 3000 -18 2734 0 2891 1 3000 18 460 72 842
259 1162 566 277 265 470 592 573 968 70 254 66 55 63 3313 l-3 2935 -23 113
c-45 227 -144 486 -255 671 -352 585 -930 953 -1601 1020 -134 13 -5716 13
-5846 0z m2918 -4804 c2 -1702 1 -1821 -15 -1832 -22 -16 -464 -18 -494 -3
-19 10 -19 30 -19 836 0 550 -3 832 -10 845 -10 18 -23 19 -170 19 -116 0
-161 -3 -167 -12 -4 -7 -10 -375 -13 -818 l-5 -805 -260 0 -260 0 0 1785 0
1785 260 0 260 0 5 -678 c5 -657 6 -679 24 -693 15 -10 54 -14 158 -14 125 0
140 2 158 20 20 20 20 33 20 698 0 373 3 682 7 685 4 4 122 6 262 5 l256 -3 3
-1820z m3327 15 l0 -1805 -1465 0 -1465 0 0 820 0 820 265 0 265 0 5 -175 c3
-96 9 -181 13 -187 12 -18 1807 -19 1825 -1 9 9 12 282 12 1168 0 636 3 1160
7 1163 4 4 126 6 272 5 l266 -3 0 -1805z m-810 1465 l0 -250 -412 -5 c-226 -3
-415 -8 -419 -12 -7 -7 -37 -135 -49 -208 -3 -19 -2 -40 2 -47 8 -11 152 -100
793 -491 113 -68 208 -130 212 -136 11 -16 9 -19 -119 -235 -107 -181 -127
-210 -144 -211 -5 0 -624 383 -857 531 -51 32 -103 59 -116 59 -16 0 -45 -26
-99 -89 -176 -204 -435 -368 -702 -446 -114 -33 -312 -67 -367 -63 l-43 3 -3
249 c-1 160 1 253 8 261 6 7 38 16 71 19 134 16 312 84 441 170 135 89 281
276 337 432 51 140 57 171 36 194 -17 19 -35 20 -434 22 l-416 3 -3 240 c-1
132 0 245 3 252 3 11 228 13 1142 11 l1138 -3 0 -250z m-5197 223 c9 -9 12
-331 12 -1386 0 -927 3 -1380 10 -1393 10 -18 23 -19 229 -19 393 0 572 30
874 146 76 30 77 27 77 -254 0 -133 -4 -241 -10 -252 -23 -42 -242 -110 -480
-147 -101 -16 -185 -18 -675 -18 l-560 0 -3 1654 c-1 1214 1 1657 9 1667 16
19 499 20 517 2z"/>
<path d="M5780 3780 c-17 -17 -20 -33 -20 -111 0 -50 5 -99 10 -110 10 -19 31
-19 920 -19 889 0 910 0 920 19 5 11 10 60 10 110 0 147 112 131 -930 131
-877 0 -890 0 -910 -20z"/>
</g>
</svg>
